# Blender v2.78 (sub 0) OBJ File: 'box.blend'
# www.blender.org
mtllib box.mtl
o Box_Cube.003
v 1.937302 0.000000 1.000000
v 2.000000 0.062698 1.000000
v 2.000000 0.062698 -1.000000
v 1.937301 -0.000000 -1.000000
v 2.000000 1.937302 1.000000
v 1.937302 2.000000 1.000000
v 1.937301 2.000000 -1.000000
v 2.000000 1.937302 -1.000000
v 0.000000 0.062698 1.000000
v 0.062699 0.000000 1.000000
v 0.062698 -0.000000 -1.000000
v -0.000000 0.062698 -1.000000
v 0.062699 2.000000 1.000000
v 0.000000 1.937302 1.000000
v -0.000000 1.937302 -1.000000
v 0.062698 2.000000 -1.000000
v 1.937302 -0.000000 0.587990
v 2.000000 0.062698 0.587990
v 2.000000 0.062698 -0.587991
v 1.937302 -0.000000 -0.587991
v 1.937302 2.000000 -0.587991
v 2.000000 1.937302 -0.587991
v 2.000000 1.937302 0.587990
v 1.937302 2.000000 0.587990
v -0.000000 1.937302 -0.587990
v 0.062698 2.000000 -0.587990
v 0.062698 2.000000 0.587991
v 0.000000 1.937302 0.587991
v -0.000000 0.062698 -0.587990
v 0.062698 -0.000000 -0.587990
v 0.000000 0.062698 0.587991
v 0.062698 -0.000000 0.587991
v 1.876521 0.060781 0.562703
v 1.939219 0.123480 0.562703
v 1.939219 0.123480 -0.562703
v 1.876520 0.060781 -0.562703
v 1.939219 1.876520 -0.562703
v 1.876520 1.939219 -0.562703
v 1.939219 1.876520 0.562703
v 1.876521 1.939219 0.562703
v 0.123479 1.939219 -0.562703
v 0.060781 1.876520 -0.562703
v 0.060782 1.876520 0.562703
v 0.123480 1.939219 0.562703
v 0.123479 0.060781 -0.562703
v 0.060781 0.123480 -0.562703
v 0.123480 0.060781 0.562703
v 0.060782 0.123480 0.562703
vt 0.9019 0.0928
vt 0.5755 0.0928
vt 0.5857 0.0826
vt 0.8917 0.0826
vt 0.5744 0.9002
vt 0.5108 0.9018
vt 0.5107 0.5900
vt 0.5744 0.5920
vt 0.9687 0.9025
vt 0.9668 0.5903
vt 0.9794 0.5925
vt 0.9827 0.9014
vt 0.5153 0.0935
vt 0.5755 0.3988
vt 0.5142 0.4000
vt 0.5848 0.5817
vt 0.5848 0.5139
vt 0.8930 0.5139
vt 0.8930 0.5817
vt 0.8930 0.9105
vt 0.8930 0.9783
vt 0.5848 0.9783
vt 0.5848 0.9105
vt 0.9033 0.5920
vt 0.9033 0.9002
vt 0.2503 0.3515
vt 0.4484 0.3515
vt 0.4484 0.6600
vt 0.2503 0.6600
vt 0.9640 0.4001
vt 0.9019 0.3988
vt 0.9653 0.0914
vt 0.9778 0.0930
vt 0.9753 0.3920
vt 0.5857 0.4763
vt 0.5857 0.4091
vt 0.8917 0.4091
vt 0.8917 0.4763
vt 0.5947 0.5031
vt 0.8830 0.5031
vt 0.8917 0.0154
vt 0.5857 0.0154
vt 0.5037 0.3930
vt 0.5021 0.0938
vt 0.2496 0.6774
vt 0.4477 0.6774
vt 0.4477 0.9859
vt 0.2496 0.9859
vt 0.2278 0.9707
vt 0.0297 0.9707
vt 0.0297 0.6621
vt 0.2278 0.6621
vt 0.2274 0.6449
vt 0.0294 0.6449
vt 0.0294 0.3364
vt 0.2274 0.3364
vt 0.5956 0.0046
vt 0.8818 0.0046
vt 0.8818 0.4871
vt 0.5956 0.4871
vt 0.8830 0.9891
vt 0.5947 0.9891
vt 0.4983 0.8998
vt 0.4966 0.5905
vt 0.5088 0.0763
vt 0.5714 0.0756
vt 0.9673 0.9173
vt 0.9074 0.9176
vt 0.5719 0.9139
vt 0.5121 0.9150
vt 0.5127 0.5753
vt 0.5704 0.5746
vt 0.9058 0.5783
vt 0.9657 0.5771
vt 0.9830 0.9170
vt 0.5798 0.4137
vt 0.5157 0.4127
vt 0.9807 0.5777
vt 0.9705 0.4134
vt 0.9060 0.4161
vt 0.9636 0.0783
vt 0.9785 0.0782
vt 0.9044 0.0793
vt 0.4996 0.0808
vt 0.2503 0.3359
vt 0.4484 0.3359
vt 0.4484 0.6756
vt 0.2503 0.6756
vt 0.2278 0.9863
vt 0.0297 0.9863
vt 0.0297 0.6465
vt 0.2278 0.6465
vt 0.4971 0.9146
vt 0.4970 0.5749
vt 0.5015 0.4085
vt 0.9837 0.4050
vn -0.0000 0.0000 -1.0000
vn -1.0000 0.0000 0.0000
vn 0.3841 -0.0000 -0.9233
vn 1.0000 0.0000 0.0000
vn 0.0000 -1.0000 0.0000
vn 0.0000 1.0000 0.0000
vn -0.3841 0.0000 0.9233
vn -0.0000 -0.3841 -0.9233
vn 0.3841 0.0000 0.9233
vn 0.0000 -0.3841 0.9233
vn 0.0000 0.3841 0.9233
vn -0.0000 0.3841 -0.9233
vn -0.3841 -0.0000 -0.9233
vn 0.7071 -0.7071 -0.0000
vn 0.7071 0.7071 -0.0000
vn -0.7071 0.7071 0.0000
vn -0.7071 -0.7071 0.0000
vn 0.1996 0.1996 -0.9593
vn 0.1996 -0.1996 -0.9593
vn -0.1996 -0.1996 0.9593
vn 0.1996 -0.1996 0.9593
vn -0.1996 0.1996 -0.9593
vn -0.1996 -0.1996 -0.9593
vn 0.1996 0.1996 0.9593
vn -0.1996 0.1996 0.9593
vn 0.0000 0.0000 1.0000
usemtl Material
s off
f 12/1/1 3/2/1 4/3/1 11/4/1
f 14/5/2 28/6/2 31/7/2 9/8/2
f 23/9/3 18/10/3 34/11/3 39/12/3
f 19/13/4 3/2/4 8/14/4 22/15/4
f 10/16/5 32/17/5 17/18/5 1/19/5
f 6/20/6 24/21/6 27/22/6 13/23/6
f 2/24/4 18/10/4 23/9/4 5/25/4
f 34/26/4 35/27/4 37/28/4 39/29/4
f 25/30/2 15/31/2 12/1/2 29/32/2
f 25/30/7 29/32/7 46/33/7 42/34/7
f 21/35/6 7/36/6 16/37/6 26/38/6
f 17/18/8 32/17/8 47/39/8 33/40/8
f 30/41/5 11/4/5 4/3/5 20/42/5
f 19/13/9 22/15/9 37/43/9 35/44/9
f 40/45/6 38/46/6 41/47/6 44/48/6
f 43/49/2 42/50/2 46/51/2 48/52/2
f 47/53/5 45/54/5 36/55/5 33/56/5
f 30/41/10 20/42/10 36/57/10 45/58/10
f 21/35/11 26/38/11 41/59/11 38/60/11
f 27/22/12 24/21/12 40/61/12 44/62/12
f 31/7/13 28/6/13 43/63/13 48/64/13
f 20/65/14 4/66/14 3/2/14 19/13/14
f 24/67/15 6/68/15 5/25/15 23/9/15
f 28/6/16 14/5/16 13/69/16 27/70/16
f 32/71/17 10/72/17 9/8/17 31/7/17
f 1/73/14 17/74/14 18/10/14 2/24/14
f 40/75/18 24/67/18 23/9/18 39/12/18
f 7/76/15 21/77/15 22/15/15 8/14/15
f 17/74/19 33/78/19 34/11/19 18/10/19
f 15/31/16 25/30/16 26/79/16 16/80/16
f 46/33/20 29/32/20 30/81/20 45/82/20
f 11/83/17 30/81/17 29/32/17 12/1/17
f 19/13/21 35/44/21 36/84/21 20/65/21
f 33/85/14 36/86/14 35/27/14 34/26/14
f 38/87/15 40/88/15 39/29/15 37/28/15
f 42/50/16 43/49/16 44/89/16 41/90/16
f 45/91/17 47/92/17 48/52/17 46/51/17
f 43/63/22 28/6/22 27/70/22 44/93/22
f 47/94/23 32/71/23 31/7/23 48/64/23
f 21/77/24 38/95/24 37/43/24 22/15/24
f 25/30/25 42/34/25 41/96/25 26/79/25
f 5/25/26 6/20/26 13/23/26 14/5/26
f 15/31/1 16/37/1 7/36/1 8/14/1
f 12/1/1 15/31/1 8/14/1 3/2/1
f 2/24/26 5/25/26 14/5/26 9/8/26
f 1/19/26 2/24/26 9/8/26 10/16/26
