# Blender v2.78 (sub 0) OBJ File: 'coin.blend'
# www.blender.org
mtllib coin.mtl
o Coin_Cylinder.001
v -0.006068 1.000000 0.000000
v 0.139667 1.000000 -0.000000
v -0.006068 2.000000 0.000000
v 0.139667 2.000000 -0.000000
v -0.006068 1.500000 -0.866025
v 0.139667 1.500000 -0.866025
v -0.006068 0.500000 -0.866025
v 0.139667 0.500000 -0.866025
v -0.006068 -0.000000 0.000000
v 0.139667 -0.000000 0.000000
v -0.006068 0.500000 0.866025
v 0.139667 0.500000 0.866025
v -0.006068 1.500000 0.866025
v 0.139667 1.500000 0.866025
vt 0.7308 0.3561
vt 0.7300 0.6232
vt 0.4991 0.4890
vt 0.2804 0.6957
vt 0.5114 0.8298
vt 0.2797 0.9628
vt 0.5001 0.0282
vt 0.4999 0.0556
vt 0.3493 0.0556
vt 0.3494 0.0281
vt 0.4999 0.2219
vt 0.5120 0.5627
vt 0.1987 0.0555
vt 0.1988 0.0281
vt 0.7316 0.0891
vt 0.2810 0.4286
vt 0.0481 0.0555
vt 0.0482 0.0281
vt 0.9625 0.2233
vt 0.0494 0.5616
vt 0.9519 0.0283
vt 0.9518 0.0557
vt 0.8012 0.0557
vt 0.8013 0.0283
vt 0.9617 0.4904
vt 0.0488 0.8287
vt 0.6506 0.0557
vt 0.6507 0.0282
vn -1.0000 0.0000 0.0000
vn 1.0000 -0.0000 -0.0000
vn 0.0000 0.8660 -0.5000
vn 0.0000 -0.0000 -1.0000
vn -0.0000 -0.8660 -0.5000
vn 0.0000 -0.8660 0.5000
vn 0.0000 0.0000 1.0000
vn 0.0000 0.8660 0.5000
usemtl Material
s off
f 1/1/1 3/2/1 5/3/1
f 2/4/2 6/5/2 4/6/2
f 3/7/3 4/8/3 6/9/3 5/10/3
f 1/1/1 5/3/1 7/11/1
f 2/4/2 8/12/2 6/5/2
f 5/10/4 6/9/4 8/13/4 7/14/4
f 1/1/1 7/11/1 9/15/1
f 2/4/2 10/16/2 8/12/2
f 7/14/5 8/13/5 10/17/5 9/18/5
f 1/1/1 9/15/1 11/19/1
f 2/4/2 12/20/2 10/16/2
f 9/21/6 10/22/6 12/23/6 11/24/6
f 1/1/1 11/19/1 13/25/1
f 2/4/2 14/26/2 12/20/2
f 11/24/7 12/23/7 14/27/7 13/28/7
f 1/1/1 13/25/1 3/2/1
f 2/4/2 4/6/2 14/26/2
f 13/28/8 14/27/8 4/8/8 3/7/8
