# Blender v2.78 (sub 0) OBJ File: 'finish_stand.blend'
# www.blender.org
mtllib finish_stand.mtl
o Finish_stand_Circle
v 0.458454 0.287727 0.000000
v 0.000000 0.000000 0.000000
v 0.500000 0.000000 0.866025
v 1.500000 0.000000 0.866025
v 2.000000 0.000000 -0.000000
v 1.500000 0.000000 -0.866025
v 0.500000 0.000000 -0.866025
v 0.139722 0.214271 0.000000
v 0.569861 0.214271 0.745023
v 1.430139 0.214271 0.745023
v 1.860278 0.214271 -0.000000
v 1.430139 0.214271 -0.745023
v 0.569861 0.214271 -0.745023
v 0.729227 0.287727 0.468993
v 1.270773 0.287727 0.468993
v 1.541546 0.287727 -0.000000
v 1.270773 0.287727 -0.468993
v 0.729227 0.287727 -0.468993
v 0.571412 0.167101 0.000000
v 0.785706 0.167101 0.371168
v 1.214294 0.167101 0.371168
v 1.428588 0.167101 -0.000000
v 1.214294 0.167101 -0.371168
v 0.785706 0.167101 -0.371168
v 1.000000 0.167101 -0.000000
vt 0.8543 0.4941
vt 0.6839 0.8005
vt 0.6135 0.6856
vt 0.7195 0.4975
vt 0.6742 0.1932
vt 0.6098 0.3116
vt 0.3237 0.1988
vt 0.3941 0.3137
vt 0.3335 0.8062
vt 0.3979 0.6878
vt 0.1535 0.5052
vt 0.2883 0.5018
vt 0.9819 0.4997
vt 0.7429 0.0855
vt 0.7429 0.9138
vt 0.2647 0.0855
vt 0.0259 0.4997
vt 0.2648 0.9139
vt 0.3402 0.4994
vt 0.4239 0.3544
vt 0.4516 0.3984
vt 0.3922 0.4975
vt 0.5914 0.3544
vt 0.5671 0.4004
vt 0.6751 0.4994
vt 0.6231 0.5014
vt 0.5914 0.6445
vt 0.5637 0.6004
vt 0.4239 0.6445
vt 0.4482 0.5985
vt 0.5076 0.4994
vn -0.2227 0.9664 0.1286
vn -0.2227 0.9664 -0.1286
vn 0.0000 0.9664 -0.2572
vn 0.0000 0.9664 0.2572
vn 0.2227 0.9664 -0.1286
vn 0.2227 0.9664 0.1286
vn -0.7541 0.4917 -0.4354
vn -0.7541 0.4917 0.4354
vn 0.0000 0.4917 -0.8707
vn 0.7541 0.4917 -0.4354
vn 0.7541 0.4917 0.4354
vn 0.0000 0.4917 0.8707
vn -0.6726 0.6299 0.3883
vn 0.0000 0.6299 0.7767
vn 0.6726 0.6299 0.3883
vn 0.6726 0.6299 -0.3883
vn 0.0000 0.6299 -0.7767
vn -0.6726 0.6299 -0.3883
vn 0.0000 1.0000 0.0000
usemtl Material
s off
f 8/1/1 9/2/1 14/3/1 1/4/1
f 13/5/2 8/1/2 1/4/2 18/6/2
f 12/7/3 13/5/3 18/6/3 17/8/3
f 9/2/4 10/9/4 15/10/4 14/3/4
f 11/11/5 12/7/5 17/8/5 16/12/5
f 10/9/6 11/11/6 16/12/6 15/10/6
f 2/13/7 8/1/7 13/5/7 7/14/7
f 3/15/8 9/2/8 8/1/8 2/13/8
f 7/14/9 13/5/9 12/7/9 6/16/9
f 6/16/10 12/7/10 11/11/10 5/17/10
f 5/17/11 11/11/11 10/9/11 4/18/11
f 4/18/12 10/9/12 9/2/12 3/15/12
f 16/19/13 17/20/13 23/21/13 22/22/13
f 17/20/14 18/23/14 24/24/14 23/21/14
f 18/23/15 1/25/15 19/26/15 24/24/15
f 1/25/16 14/27/16 20/28/16 19/26/16
f 14/27/17 15/29/17 21/30/17 20/28/17
f 15/29/18 16/19/18 22/22/18 21/30/18
f 19/26/19 20/28/19 25/31/19
f 21/30/19 22/22/19 25/31/19
f 23/21/19 24/24/19 25/31/19
f 20/28/19 21/30/19 25/31/19
f 22/22/19 23/21/19 25/31/19
f 24/24/19 19/26/19 25/31/19
