# Blender v2.78 (sub 0) OBJ File: 'medkit.blend'
# www.blender.org
mtllib medkit.mtl
o Medkit_Cube
v 0.920967 0.003751 0.352047
v 1.034375 0.086242 0.317092
v 0.920967 0.086242 0.398658
v 1.034375 1.332330 0.317092
v 0.920967 1.414821 0.352047
v 0.920967 1.332330 0.398658
v -0.920967 0.003751 0.352047
v -0.920967 0.086242 0.398658
v -1.034375 0.086242 0.317092
v -0.920967 1.414821 0.352047
v -1.034375 1.332330 0.317092
v -0.920967 1.332330 0.398658
v 0.920967 0.003751 -0.352047
v 0.920967 0.086242 -0.398658
v 1.034375 0.086242 -0.317092
v 0.920967 1.414821 -0.352047
v 1.034375 1.332330 -0.317092
v 0.920967 1.332330 -0.398658
v -0.920967 0.003751 -0.352047
v -1.034375 0.086242 -0.317092
v -0.920967 0.086242 -0.398658
v -0.920967 1.414821 -0.352047
v -0.920967 1.332330 -0.398658
v -1.034375 1.332330 -0.317092
vt 0.4467 0.1508
vt 0.4439 0.4157
vt 0.2927 0.4156
vt 0.2955 0.1507
vt 0.9687 0.5621
vt 0.9687 0.8948
vt 0.5116 0.8948
vt 0.5116 0.5621
vt 0.4765 0.7525
vt 0.4765 0.9260
vt 0.0309 0.9260
vt 0.0309 0.7525
vt 0.9726 0.1052
vt 0.9726 0.4379
vt 0.5155 0.4379
vt 0.5155 0.1052
vt 0.2108 0.1506
vt 0.2087 0.4165
vt 0.0575 0.4159
vt 0.0596 0.1500
vt 0.2853 0.1269
vt 0.2718 0.1462
vt 0.2826 0.4398
vt 0.2695 0.4205
vt 0.2209 0.1263
vt 0.2341 0.1457
vt 0.2191 0.4404
vt 0.2324 0.4211
vt 0.4569 0.1266
vt 0.4700 0.1459
vt 0.4542 0.4396
vt 0.4676 0.4203
vt 0.0493 0.1260
vt 0.0359 0.1453
vt 0.0475 0.4401
vt 0.0343 0.4207
vt 0.5155 0.0741
vt 0.9726 0.0741
vt 0.9726 0.4690
vt 0.5155 0.4690
vt 0.5116 0.5310
vt 0.9687 0.5310
vt 0.9687 0.9259
vt 0.5116 0.9259
vt 0.4730 0.5505
vt 0.4730 0.7241
vt 0.0274 0.7241
vt 0.0274 0.5505
vn 1.0000 0.0000 0.0000
vn -0.0000 0.0000 -1.0000
vn 0.0000 1.0000 0.0000
vn 0.0000 0.0000 1.0000
vn -1.0000 0.0000 0.0000
vn 0.5307 -0.4169 0.7379
vn 0.5307 0.4169 0.7379
vn -0.5307 -0.4169 0.7379
vn -0.5307 0.4169 0.7379
vn 0.5307 -0.4169 -0.7379
vn 0.5307 0.4169 -0.7379
vn -0.5307 -0.4169 -0.7379
vn -0.5307 0.4169 -0.7379
vn 0.0000 -0.4919 0.8706
vn 0.5839 0.0000 0.8118
vn 0.0000 0.4919 0.8706
vn -0.5839 0.0000 0.8118
vn -0.5882 -0.8087 0.0000
vn -0.5882 0.8087 0.0000
vn -0.5839 0.0000 -0.8118
vn -0.0000 -0.4919 -0.8706
vn -0.0000 0.4919 -0.8706
vn 0.5839 0.0000 -0.8118
vn 0.5882 -0.8087 0.0000
vn 0.5882 0.8087 0.0000
vn 0.0000 -1.0000 0.0000
usemtl Material
s off
f 15/1/1 17/2/1 4/3/1 2/4/1
f 21/5/2 23/6/2 18/7/2 14/8/2
f 22/9/3 10/10/3 5/11/3 16/12/3
f 3/13/4 6/14/4 12/15/4 8/16/4
f 9/17/5 11/18/5 24/19/5 20/20/5
f 1/21/6 2/4/6 3/22/6
f 4/3/7 5/23/7 6/24/7
f 7/25/8 8/26/8 9/17/8
f 10/27/9 11/18/9 12/28/9
f 13/29/10 14/30/10 15/1/10
f 16/31/11 17/2/11 18/32/11
f 19/33/12 20/20/12 21/34/12
f 22/35/13 23/36/13 24/19/13
f 7/37/14 1/38/14 3/13/14 8/16/14
f 2/4/15 4/3/15 6/24/15 3/22/15
f 5/39/16 10/40/16 12/15/16 6/14/16
f 11/18/17 9/17/17 8/26/17 12/28/17
f 19/33/18 7/25/18 9/17/18 20/20/18
f 10/27/19 22/35/19 24/19/19 11/18/19
f 23/36/20 21/34/20 20/20/20 24/19/20
f 13/41/21 19/42/21 21/5/21 14/8/21
f 22/43/22 16/44/22 18/7/22 23/6/22
f 17/2/23 15/1/23 14/30/23 18/32/23
f 1/21/24 13/29/24 15/1/24 2/4/24
f 16/31/25 5/23/25 4/3/25 17/2/25
f 7/45/26 19/46/26 13/47/26 1/48/26
