# Blender v2.78 (sub 0) OBJ File: 'road.blend'
# www.blender.org
mtllib road.mtl
o Road_Cube
v 8.057356 0.576608 2.200000
v 8.057356 1.256345 2.200000
v 0.038187 0.576608 2.200000
v 0.038187 1.256345 2.200000
v 8.057356 0.576608 -2.200000
v 8.057356 1.256345 -2.200000
v 0.038187 0.576608 -2.200000
v 0.038187 1.256345 -2.200000
v 0.038188 0.069379 -1.764278
v 0.038188 0.069379 1.764278
v 0.038188 1.256345 1.764278
v 0.038188 1.256345 -1.764278
v 8.057356 0.069379 1.764278
v 8.057356 0.069379 -1.764278
v 8.057356 1.256345 -1.764278
v 8.057356 1.256345 1.764278
v 0.038188 1.041122 1.493895
v 0.038188 1.041122 -1.493895
v 8.057355 1.041122 -1.493895
v 8.057355 1.041122 1.493895
vt 0.8986 0.8146
vt 0.8986 0.9022
vt 0.0090 0.9022
vt 0.0090 0.8146
vt 0.8986 0.8163
vt 0.8986 0.9020
vt 0.0106 0.9020
vt 0.0106 0.8163
vt 0.8986 0.7268
vt 0.0106 0.7268
vt 0.0090 0.9565
vt 0.8986 0.9565
vt 0.8986 0.9564
vt 0.0106 0.9564
vt 0.8986 0.9941
vt 0.0090 0.9941
vt 0.0090 0.7270
vt 0.8986 0.7270
vt 0.0129 0.3854
vt 0.0129 0.0167
vt 0.9045 0.0167
vt 0.9045 0.3854
vt 0.9015 0.3990
vt 0.9015 0.7127
vt 0.0124 0.7127
vt 0.0124 0.3990
vt 0.8986 0.9959
vt 0.0106 0.9959
vn 0.0000 0.0000 1.0000
vn -0.0000 0.0000 -1.0000
vn -0.0000 -0.6516 -0.7586
vn 0.0000 1.0000 0.0000
vn -0.0000 0.7824 -0.6228
vn 0.0000 -0.6516 0.7586
vn 0.0000 -1.0000 0.0000
vn 0.0000 0.7824 0.6228
usemtl Material
s off
f 1/1/1 2/2/1 4/3/1 3/4/1
f 7/5/2 8/6/2 6/7/2 5/8/2
f 9/9/3 7/5/3 5/8/3 14/10/3
f 11/11/4 4/3/4 2/2/4 16/12/4
f 8/6/4 12/13/4 15/14/4 6/7/4
f 11/11/5 16/12/5 20/15/5 17/16/5
f 3/4/6 10/17/6 13/18/6 1/1/6
f 10/19/7 9/20/7 14/21/7 13/22/7
f 18/23/4 17/24/4 20/25/4 19/26/4
f 15/14/8 12/13/8 18/27/8 19/28/8
