# Blender v2.78 (sub 0) OBJ File: 'virus01.blend'
# www.blender.org
mtllib virus01.mtl
o Virus-01_Cube.002
v -0.736348 0.558108 0.779922
v -0.736348 0.558108 -0.779922
v 0.815640 0.714460 0.779922
v 0.815640 0.714460 -0.779922
v -0.374758 0.800830 0.395824
v -0.374758 0.800830 -0.395824
v 0.412903 0.880181 -0.395824
v 0.412903 0.880181 0.395824
v -0.828348 0.681298 0.859111
v -0.828348 0.681298 -0.859111
v 0.881220 0.853525 -0.859111
v 0.881220 0.853525 0.859111
v -0.174739 2.245568 0.051998
v -0.174739 2.245568 -0.051998
v -0.071266 2.255992 -0.051998
v -0.071266 2.255992 0.051998
v -0.348178 0.683997 0.302010
v -0.348178 0.683997 -0.302010
v 0.348178 0.683997 0.302010
v 0.348178 0.683997 -0.302010
v -0.255741 0.243227 -0.250462
v -0.255741 0.243227 0.250462
v 0.255741 0.243227 -0.250462
v 0.255741 0.243227 0.250462
v -0.081714 0.181880 0.146006
v -0.157196 0.247692 0.184230
v -0.081714 0.181880 -0.146006
v -0.157196 0.247692 -0.184230
v 0.081714 0.181880 0.146006
v 0.157196 0.247692 0.184230
v 0.081714 0.181880 -0.146006
v 0.157196 0.247692 -0.184230
v -0.018924 0.012380 -0.092283
v -0.018924 0.221147 -0.092283
v -0.018924 0.012380 -0.130130
v -0.018924 0.221147 -0.130130
v 0.018924 0.012380 -0.092283
v 0.018924 0.221147 -0.092283
v 0.018924 0.012380 -0.130130
v 0.018924 0.221147 -0.130130
v -0.044249 0.018926 -0.080592
v -0.044249 0.018926 -0.141820
v 0.112690 0.018926 -0.066114
v 0.112690 0.018926 -0.156299
v 0.112690 -0.007344 -0.156299
v 0.112690 -0.007344 -0.066114
v -0.044249 -0.007344 -0.141820
v -0.044249 -0.007344 -0.080592
v -0.018924 0.012380 0.130120
v -0.018924 0.221147 0.130120
v -0.018924 0.012380 0.092273
v -0.018924 0.221147 0.092273
v 0.018924 0.012380 0.130120
v 0.018924 0.221147 0.130120
v 0.018924 0.012380 0.092273
v 0.018924 0.221147 0.092273
v -0.044249 0.018926 0.141810
v -0.044249 0.018926 0.080582
v 0.112690 0.018926 0.156289
v 0.112690 0.018926 0.066104
v 0.112690 -0.007344 0.066104
v 0.112690 -0.007344 0.156289
v -0.044249 -0.007344 0.080582
v -0.044249 -0.007344 0.141810
vt 0.8951 0.3667
vt 0.9506 0.6343
vt 0.5322 0.6343
vt 0.5878 0.3667
vt 0.9214 0.0195
vt 0.9566 0.3269
vt 0.5443 0.3269
vt 0.5795 0.0195
vt 0.9075 0.6667
vt 0.9414 0.9629
vt 0.5440 0.9629
vt 0.5780 0.6667
vt 0.0396 0.0261
vt 0.3468 0.0261
vt 0.2134 0.5920
vt 0.1731 0.5920
vt 0.2540 0.8493
vt 0.1569 0.8493
vt 0.1569 0.7522
vt 0.2540 0.7522
vt 0.0355 0.9312
vt 0.0358 0.6696
vt 0.0616 0.6564
vt 0.0612 0.9445
vt 0.3755 0.6702
vt 0.3751 0.9317
vt 0.3493 0.9449
vt 0.3497 0.6568
vt 0.0749 0.6306
vt 0.3365 0.6310
vt 0.3360 0.9707
vt 0.0745 0.9703
vt 0.1394 0.8663
vt 0.2711 0.8668
vt 0.2716 0.7350
vt 0.1398 0.7345
vt 0.4581 0.8767
vt 0.4581 0.9232
vt 0.4117 0.9232
vt 0.4117 0.8767
vt 0.0417 0.0261
vt 0.3489 0.0261
vt 0.2154 0.5920
vt 0.1751 0.5920
vt 0.0411 0.0235
vt 0.3483 0.0235
vt 0.2149 0.5895
vt 0.1745 0.5895
vt 0.0411 0.0261
vt 0.3483 0.0261
vt 0.2149 0.5920
vt 0.1745 0.5920
vt 0.5873 0.3670
vt 0.5316 0.6343
vt 0.9512 0.6343
vt 0.8955 0.3670
vt 0.4116 0.6903
vt 0.5195 0.6903
vt 0.5195 0.7960
vt 0.4116 0.7960
vt 0.3227 0.4538
vt 0.2825 0.3984
vt 0.5076 0.3984
vt 0.4653 0.4519
vt 0.5059 0.5904
vt 0.4657 0.5349
vt 0.2807 0.5904
vt 0.3231 0.5369
vt 0.4472 0.0198
vt 0.4472 0.2267
vt 0.4096 0.2267
vt 0.4096 0.0198
vt 0.3721 0.2267
vt 0.3721 0.0198
vt 0.5222 0.0198
vt 0.5222 0.2267
vt 0.4847 0.2267
vt 0.4847 0.0198
vt 0.9748 0.6291
vt 0.9748 0.5513
vt 0.9888 0.5513
vt 0.9888 0.6291
vt 0.3160 0.3499
vt 0.3160 0.2743
vt 0.5098 0.2565
vt 0.5098 0.3678
vt 0.0319 0.5632
vt 0.0220 0.4504
vt 0.0868 0.4507
vt 0.0758 0.5634
vt 0.9748 0.8295
vt 0.9888 0.8295
vt 0.9748 0.3509
vt 0.9748 0.2363
vt 0.9888 0.2363
vt 0.9888 0.3509
vt 0.4470 0.0198
vt 0.4470 0.2267
vt 0.4095 0.2267
vt 0.4095 0.0198
vt 0.3720 0.2267
vt 0.3720 0.0198
vt 0.5221 0.0198
vt 0.5221 0.2267
vt 0.4845 0.2267
vt 0.4845 0.0198
vt 0.9758 0.6291
vt 0.9758 0.5513
vt 0.9898 0.5513
vt 0.9898 0.6291
vt 0.3176 0.3496
vt 0.3176 0.2740
vt 0.5114 0.2561
vt 0.5114 0.3674
vt 0.0299 0.5618
vt 0.0201 0.4490
vt 0.0848 0.4493
vt 0.0738 0.5620
vt 0.9758 0.8295
vt 0.9898 0.8295
vt 0.9758 0.3509
vt 0.9758 0.2363
vt 0.9898 0.2363
vt 0.9898 0.3509
vn 0.0000 -0.1162 -0.9932
vn 0.9787 -0.2053 0.0000
vn -0.9787 -0.2053 0.0000
vn 0.9433 0.3320 0.0000
vn 0.1002 -0.9950 0.0000
vn 0.0516 -0.5124 0.8572
vn 0.0516 -0.5124 -0.8572
vn 0.9045 -0.4265 0.0000
vn -0.8012 -0.5984 0.0000
vn -0.2548 0.9670 0.0000
vn -0.0990 0.9827 -0.1566
vn 0.0568 0.9984 0.0000
vn -0.0990 0.9827 0.1566
vn -0.1002 0.9950 0.0000
vn -0.9906 0.1371 0.0000
vn -0.0236 0.2345 0.9718
vn -0.0236 0.2345 -0.9718
vn 0.0000 -0.1162 0.9932
vn 0.0000 -1.0000 0.0000
vn -0.6572 -0.7537 0.0000
vn 0.0000 -0.5022 -0.8647
vn 0.6572 -0.7537 0.0000
vn 0.0000 -0.5022 0.8647
vn -1.0000 0.0000 0.0000
vn 0.0000 0.0000 -1.0000
vn 1.0000 0.0000 0.0000
vn 0.0000 0.0000 1.0000
vn 0.0000 1.0000 0.0000
vn -0.0919 0.0000 -0.9958
vn -0.0919 0.0000 0.9958
usemtl Material.001
s off
f 21/1/1 18/2/1 20/3/1 23/4/1
f 23/5/2 20/6/2 19/7/2 24/8/2
f 22/9/3 17/10/3 18/11/3 21/12/3
f 8/13/4 7/14/4 15/15/4 16/16/4
f 4/17/5 3/18/5 1/19/5 2/20/5
f 1/21/6 3/22/6 12/23/6 9/24/6
f 4/25/7 2/26/7 10/27/7 11/28/7
f 3/29/8 4/30/8 11/28/8 12/23/8
f 2/31/9 1/32/9 9/24/9 10/27/9
f 5/33/10 6/34/10 10/27/10 9/24/10
f 6/34/11 7/35/11 11/28/11 10/27/11
f 7/35/12 8/36/12 12/23/12 11/28/12
f 8/36/13 5/33/13 9/24/13 12/23/13
f 15/37/14 14/38/14 13/39/14 16/40/14
f 6/41/15 5/42/15 13/43/15 14/44/15
f 5/45/16 8/46/16 16/47/16 13/48/16
f 7/49/17 6/50/17 14/51/17 15/52/17
f 24/53/18 19/54/18 17/55/18 22/56/18
f 21/57/19 23/58/19 24/59/19 22/60/19
f 25/61/20 26/62/20 28/63/20 27/64/20
f 27/64/21 28/63/21 32/65/21 31/66/21
f 31/66/22 32/65/22 30/67/22 29/68/22
f 29/68/23 30/67/23 26/62/23 25/61/23
f 27/64/19 31/66/19 29/68/19 25/61/19
f 33/69/24 34/70/24 36/71/24 35/72/24
f 35/72/25 36/71/25 40/73/25 39/74/25
f 39/75/26 40/76/26 38/77/26 37/78/26
f 37/78/27 38/77/27 34/70/27 33/69/27
f 47/79/24 48/80/24 41/81/24 42/82/24
f 42/83/28 41/84/28 43/85/28 44/86/28
f 47/87/19 45/88/19 46/89/19 48/90/19
f 45/91/29 47/79/29 42/82/29 44/92/29
f 46/93/26 45/94/26 44/95/26 43/96/26
f 48/80/30 46/93/30 43/96/30 41/81/30
f 49/97/24 50/98/24 52/99/24 51/100/24
f 51/100/25 52/99/25 56/101/25 55/102/25
f 55/103/26 56/104/26 54/105/26 53/106/26
f 53/106/27 54/105/27 50/98/27 49/97/27
f 63/107/24 64/108/24 57/109/24 58/110/24
f 58/111/28 57/112/28 59/113/28 60/114/28
f 63/115/19 61/116/19 62/117/19 64/118/19
f 61/119/29 63/107/29 58/110/29 60/120/29
f 62/121/26 61/122/26 60/123/26 59/124/26
f 64/108/30 62/121/30 59/124/30 57/109/30
